<svg fill="#124c91" xmlns="http://www.w3.org/2000/svg"  viewBox="0 0 200 200" width="200px" height="200px">
    <svg fill="#124c91" xmlns="http://www.w3.org/2000/svg"  viewBox="-13 -25 100 100" width="100px" height="200px"><path d="M 18.8125 4 C 18.335938 4.089844 17.992188 4.511719 18 5 L 18 26 L 15.15625 27.0625 L 5.875 30.34375 C 5.863281 30.355469 5.855469 30.363281 5.84375 30.375 L 4.25 30.96875 C 4.230469 30.976563 4.207031 30.988281 4.1875 31 C 1.589844 32.191406 0 33.820313 0 35.6875 C 0 37.171875 0.4375 38.523438 1.3125 39.53125 C 2.1875 40.539063 3.449219 41.1875 4.96875 41.5 C 8.003906 42.125 12.117188 41.53125 17.3125 39.75 C 17.527344 39.679688 17.691406 39.609375 18 39.5 L 18 41.59375 C 17.996094 42.042969 18.289063 42.4375 18.71875 42.5625 L 26.4375 44.875 C 26.46875 44.886719 26.5 44.898438 26.53125 44.90625 C 26.621094 44.953125 26.714844 44.984375 26.8125 45 C 26.90625 45.011719 27 45.011719 27.09375 45 C 27.105469 45 27.113281 45 27.125 45 C 27.199219 44.988281 27.273438 44.964844 27.34375 44.9375 C 27.386719 44.929688 27.429688 44.917969 27.46875 44.90625 C 27.480469 44.894531 27.488281 44.886719 27.5 44.875 L 33.625 42.75 L 44.4375 38.9375 C 44.46875 38.929688 44.5 38.917969 44.53125 38.90625 L 45.75 38.34375 C 45.777344 38.332031 45.785156 38.324219 45.8125 38.3125 C 47.132813 37.800781 48.144531 37.261719 48.875 36.59375 C 49.621094 35.910156 50.074219 34.980469 50 34.03125 C 49.917969 33.070313 49.316406 32.257813 48.5 31.65625 C 47.683594 31.054688 46.625 30.578125 45.3125 30.15625 C 42.277344 29.109375 39.269531 28.800781 36.5625 28.90625 C 34.003906 29.007813 31.324219 29.40625 28.65625 30.21875 L 28.59375 30.25 L 28 30.40625 L 28 13.53125 C 28.578125 13.847656 29 14.351563 29 15 L 29 26.09375 C 28.996094 26.429688 29.160156 26.746094 29.4375 26.9375 C 29.4375 26.9375 29.894531 27.242188 30.65625 27.5 C 31.417969 27.757813 32.539063 28 34 28 C 36.710938 28 38.425781 26.355469 39.1875 24.53125 C 39.949219 22.707031 40 20.695313 40 19.40625 C 40 13.320313 36.320313 9.15625 31.28125 7.65625 L 19.28125 4.03125 C 19.160156 3.996094 19.03125 3.988281 18.90625 4 C 18.875 4 18.84375 4 18.8125 4 Z M 20 6.34375 L 30.71875 9.5625 C 35.078125 10.863281 38 14.09375 38 19.40625 C 38 20.617188 37.90625 22.398438 37.34375 23.75 C 36.78125 25.101563 35.988281 26 34 26 C 32.761719 26 31.878906 25.785156 31.3125 25.59375 C 31.078125 25.515625 31.117188 25.523438 31 25.46875 L 31 15 C 31 13.371094 29.90625 12.039063 28.46875 11.5 C 28.453125 11.496094 28.453125 11.472656 28.4375 11.46875 C 27.261719 11.023438 26 11.933594 26 13.1875 L 26 31.5625 C 25.992188 31.636719 25.992188 31.707031 26 31.78125 L 26 36.40625 C 25.972656 36.539063 25.972656 36.679688 26 36.8125 L 26 39.25 C 25.941406 39.441406 25.941406 39.652344 26 39.84375 L 26 42.65625 L 20 40.875 L 20 38.34375 C 20.058594 38.152344 20.058594 37.941406 20 37.75 L 20 34.5625 C 20.113281 34.304688 20.113281 34.007813 20 33.75 L 20 31.6875 C 20.132813 31.410156 20.132813 31.089844 20 30.8125 L 20 26.8125 C 20.015625 26.707031 20.015625 26.605469 20 26.5 Z M 18 28.125 L 18 30.59375 C 17.527344 30.757813 16.601563 31.09375 15.125 31.625 C 14.21875 31.949219 13.304688 32.300781 12.5625 32.5625 C 11.820313 32.824219 11.1875 33.011719 11.125 33.03125 C 11.105469 33.039063 11.082031 33.050781 11.0625 33.0625 C 9.628906 33.59375 8.707031 34.117188 8.125 34.71875 C 7.832031 35.019531 7.589844 35.359375 7.53125 35.84375 C 7.488281 36.203125 7.785156 36.519531 8.03125 36.8125 L 7.90625 36.90625 C 7.90625 36.90625 8.078125 37.054688 8.1875 37.15625 C 8.273438 37.234375 8.289063 37.273438 8.40625 37.34375 C 8.675781 37.511719 9.058594 37.660156 9.5625 37.75 C 10.5625 37.925781 12.027344 37.808594 14.21875 37.03125 C 14.230469 37.027344 14.238281 37.035156 14.25 37.03125 C 15.511719 36.589844 16.914063 36.070313 18 35.65625 L 18 37.375 C 17.542969 37.535156 17.066406 37.71875 16.6875 37.84375 C 11.679688 39.5625 7.789063 40.03125 5.375 39.53125 C 4.167969 39.28125 3.34375 38.828125 2.8125 38.21875 C 2.28125 37.609375 2 36.800781 2 35.6875 C 2 35.152344 2.828125 33.820313 5.03125 32.8125 L 6.53125 32.25 L 6.5625 32.25 L 15.84375 28.9375 Z M 36.625 30.90625 C 39.121094 30.808594 41.921875 31.078125 44.6875 32.03125 C 44.6875 32.042969 44.6875 32.050781 44.6875 32.0625 C 45.875 32.441406 46.777344 32.851563 47.3125 33.25 C 47.847656 33.648438 47.980469 33.949219 48 34.1875 C 48.027344 34.539063 47.960938 34.730469 47.53125 35.125 C 47.101563 35.519531 46.269531 35.992188 45.03125 36.46875 C 45.011719 36.476563 44.988281 36.488281 44.96875 36.5 L 43.78125 37.0625 L 43.6875 37.09375 L 32.96875 40.84375 L 28 42.59375 L 28 40.1875 C 28.984375 39.832031 37.042969 36.914063 38.84375 36.25 C 40.355469 35.695313 41.296875 35.3125 41.9375 34.96875 C 42.257813 34.796875 42.507813 34.644531 42.75 34.375 C 42.992188 34.105469 43.164063 33.5625 43.0625 33.15625 C 43.039063 33.046875 42.996094 32.941406 42.9375 32.84375 C 42.625 32.375 41.9375 32.058594 41.1875 31.90625 L 41.21875 31.84375 C 41.21875 31.84375 41.082031 31.824219 41.03125 31.8125 C 40.933594 31.789063 40.851563 31.765625 40.65625 31.75 C 40.363281 31.726563 39.976563 31.726563 39.40625 31.78125 C 38.265625 31.890625 36.484375 32.238281 33.78125 33.15625 C 30.769531 34.179688 29.078125 34.769531 28 35.15625 L 28 32.46875 L 29.15625 32.15625 C 29.167969 32.15625 29.175781 32.15625 29.1875 32.15625 C 31.699219 31.382813 34.203125 31.003906 36.625 30.90625 Z M 18 32.75 L 18 33.53125 C 17.210938 33.832031 15.183594 34.589844 13.5625 35.15625 C 11.765625 35.796875 10.753906 35.84375 10.15625 35.78125 C 10.496094 35.542969 10.824219 35.296875 11.6875 34.96875 C 11.722656 34.957031 11.714844 34.949219 11.75 34.9375 C 12.042969 34.851563 12.503906 34.691406 13.21875 34.4375 C 13.96875 34.175781 14.90625 33.855469 15.8125 33.53125 C 16.933594 33.128906 17.335938 32.992188 18 32.75 Z M 39.59375 33.78125 C 39.121094 33.972656 38.910156 34.097656 38.15625 34.375 C 36.488281 34.988281 29.777344 37.417969 28 38.0625 L 28 37.3125 C 28.621094 37.082031 30.1875 36.496094 34.40625 35.0625 C 37.003906 34.179688 38.660156 33.871094 39.59375 33.78125 Z"/></svg>
    <svg fill="#124c91" xmlns="http://www.w3.org/2000/svg"  viewBox="-25 -25 100 100" width="200px" height="100px"><path d="M 12 3 C 7.04 3 3 7.04 3 12 L 3 25.380859 L 16.419922 32.089844 C 16.919922 32.319844 17.140156 32.919922 16.910156 33.419922 C 16.740156 33.789922 16.38 34 16 34 C 15.86 34 15.720078 33.970156 15.580078 33.910156 L 3 27.619141 L 3 38 C 3 42.96 7.04 47 12 47 L 38 47 C 42.96 47 47 42.96 47 38 L 47 12 C 47 7.04 42.96 3 38 3 L 12 3 z M 12 5 L 38 5 C 41.86 5 45 8.14 45 12 L 45 38 C 45 41.86 41.86 45 38 45 L 12 45 C 8.14 45 5 41.86 5 38 L 5 30.859375 L 9.0195312 32.869141 C 9.0095313 33.079141 9 33.29 9 33.5 C 9 37.64 12.36 41 16.5 41 C 20.64 41 24 37.64 24 33.5 C 24 32.65 23.860078 31.819297 23.580078 31.029297 L 28.330078 27.449219 C 29.340078 27.819219 30.4 28 31.5 28 C 36.74 28 41 23.74 41 18.5 C 41 13.26 36.74 9 31.5 9 C 26.26 9 22 13.26 22 18.5 C 22 19.62 22.190312 20.71 22.570312 21.75 L 19.119141 26.470703 C 18.289141 26.160703 17.4 26 16.5 26 C 14.76 26 13.160625 26.589844 11.890625 27.589844 L 5 24.150391 L 5 12 C 5 8.14 8.14 5 12 5 z M 31.5 11 C 35.64 11 39 14.36 39 18.5 C 39 22.64 35.64 26 31.5 26 C 30.47 26 29.490078 25.800391 28.580078 25.400391 C 28.250078 25.250391 27.870078 25.299766 27.580078 25.509766 L 21.759766 29.900391 C 21.379766 30.190391 21.260937 30.700859 21.460938 31.130859 C 21.820938 31.870859 22 32.67 22 33.5 C 22 36.53 19.53 39 16.5 39 C 13.6 39 11.199531 36.729141 11.019531 33.869141 L 14.689453 35.699219 L 14.720703 35.710938 L 14.740234 35.720703 C 15.140234 35.910703 15.56 36 16 36 C 17.17 36 18.240703 35.319766 18.720703 34.259766 C 19.410703 32.769766 18.769062 30.999063 17.289062 30.289062 L 13.960938 28.630859 C 14.720937 28.230859 15.58 28 16.5 28 C 17.38 28 18.22 28.199609 19 28.599609 C 19.44 28.829609 19.979531 28.700781 20.269531 28.300781 L 23.369141 24.060547 L 24.509766 22.480469 C 24.719766 22.200469 24.769141 21.820234 24.619141 21.490234 C 24.209141 20.550234 24 19.54 24 18.5 C 24 14.36 27.36 11 31.5 11 z M 31.5 13 C 28.474279 13 26 15.474279 26 18.5 C 26 21.525721 28.474279 24 31.5 24 C 34.525721 24 37 21.525721 37 18.5 C 37 15.474279 34.525721 13 31.5 13 z M 31.5 15 C 33.444841 15 35 16.555159 35 18.5 C 35 20.444841 33.444841 22 31.5 22 C 29.555159 22 28 20.444841 28 18.5 C 28 16.555159 29.555159 15 31.5 15 z"/></svg>
    <svg fill="#124c91" xmlns="http://www.w3.org/2000/svg"  viewBox="-180 -100 280 280" width="200px" height="200px"><path d="M 25.759766 10 C 21.009778 10 17.443216 11.516683 15.185547 14.380859 C 12.927878 17.245035 12 21.294442 12 26.263672 L 12 55.263672 C 12 59.506129 13.373158 63.200473 15.804688 65.832031 C 18.236216 68.463589 21.72181 70 25.759766 70 L 38.099609 70 L 38.099609 10 L 25.759766 10 z M 41.900391 10 L 41.900391 70 L 54.240234 70 C 58.27819 70 61.763784 68.463589 64.195312 65.832031 C 66.626841 63.200473 68 59.506129 68 55.263672 L 68 26.263672 C 68 21.294442 67.072122 17.245035 64.814453 14.380859 C 62.556784 11.516683 58.990222 10 54.240234 10 L 41.900391 10 z M 25.759766 12 L 36.099609 12 L 36.099609 68 L 25.759766 68 C 22.221722 68 19.327409 66.697551 17.273438 64.474609 C 15.219466 62.251668 14 59.077215 14 55.263672 L 14 26.263672 C 14 21.546902 14.906778 17.964965 16.755859 15.619141 C 18.60494 13.273317 21.418754 12 25.759766 12 z M 43.900391 12 L 45 12 C 45 12.26 45.109063 12.520937 45.289062 12.710938 C 45.339063 12.750938 45.389453 12.800078 45.439453 12.830078 C 45.499453 12.870078 45.559141 12.899922 45.619141 12.919922 C 45.679141 12.949922 45.740781 12.970469 45.800781 12.980469 C 45.870781 12.990469 45.93 13 46 13 C 46.13 13 46.260859 12.979922 46.380859 12.919922 C 46.500859 12.869922 46.610937 12.800937 46.710938 12.710938 L 46.830078 12.560547 C 46.870078 12.500547 46.899922 12.440859 46.919922 12.380859 C 46.949922 12.320859 46.970469 12.259219 46.980469 12.199219 C 46.990469 12.129219 47 12.07 47 12 L 53 12 C 53 12.13 53.030078 12.260859 53.080078 12.380859 C 53.130078 12.510859 53.199062 12.610938 53.289062 12.710938 C 53.339063 12.750938 53.389453 12.800078 53.439453 12.830078 C 53.499453 12.870078 53.559141 12.899922 53.619141 12.919922 C 53.679141 12.949922 53.740781 12.970469 53.800781 12.980469 C 53.870781 12.990469 53.94 13 54 13 C 54.26 13 54.520938 12.890937 54.710938 12.710938 C 54.884021 12.528238 54.986069 12.279208 54.994141 12.029297 C 58.90055 12.17345 61.507007 13.415338 63.244141 15.619141 C 64.347143 17.018457 65.106929 18.867491 65.546875 21.125 C 65.456418 21.170925 65.367283 21.218664 65.289062 21.289062 C 65.199062 21.389062 65.130078 21.489141 65.080078 21.619141 C 65.030078 21.739141 65 21.87 65 22 C 65 22.26 65.109062 22.520937 65.289062 22.710938 C 65.437131 22.851213 65.632069 22.928525 65.832031 22.964844 C 65.902808 23.613854 65.942682 24.300423 65.96875 25.005859 C 65.433844 25.023403 65 25.461026 65 26 C 65 26.55 65.45 27 66 27 L 66 29 C 65.45 29 65 29.45 65 30 C 65 30.55 65.45 31 66 31 L 66 33 C 65.45 33 65 33.45 65 34 C 65 34.55 65.45 35 66 35 L 66 37 C 65.45 37 65 37.45 65 38 C 65 38.55 65.45 39 66 39 L 66 41 C 65.45 41 65 41.45 65 42 C 65 42.55 65.45 43 66 43 L 66 45 C 65.45 45 65 45.45 65 46 C 65 46.55 65.45 47 66 47 L 66 49 C 65.45 49 65 49.45 65 50 C 65 50.55 65.45 51 66 51 L 66 53 C 65.45 53 65 53.45 65 54 C 65 54.55 65.45 55 66 55 L 66 55.263672 C 66 55.871355 65.958809 56.457287 65.898438 57.03125 C 65.674233 57.052653 65.453694 57.128763 65.289062 57.289062 C 65.109063 57.479062 65 57.74 65 58 C 65 58.26 65.109062 58.520938 65.289062 58.710938 C 65.374072 58.791473 65.477218 58.851464 65.583984 58.900391 C 65.098205 60.977751 64.194716 62.765604 62.960938 64.193359 C 62.974443 64.128543 63 64.06596 63 64 C 63 63.87 62.969922 63.739141 62.919922 63.619141 C 62.869922 63.489141 62.800938 63.389063 62.710938 63.289062 C 62.430937 63.009062 61.979141 62.930078 61.619141 63.080078 C 61.489141 63.130078 61.379063 63.199062 61.289062 63.289062 C 61.199063 63.389062 61.130078 63.489141 61.080078 63.619141 C 61.030078 63.739141 61 63.87 61 64 C 61 64.27 61.109063 64.520938 61.289062 64.710938 C 61.389062 64.800937 61.489141 64.869922 61.619141 64.919922 C 61.739141 64.969922 61.87 65 62 65 C 62.08133 65 62.159094 64.971474 62.238281 64.951172 C 60.381084 66.724928 57.926334 67.805692 54.992188 67.964844 C 54.982553 67.717027 54.882602 67.470264 54.710938 67.289062 C 54.430938 67.009063 53.989141 66.920078 53.619141 67.080078 C 53.489141 67.130078 53.379063 67.199062 53.289062 67.289062 C 53.109062 67.479063 53 67.74 53 68 L 47 68 C 47 67.74 46.890937 67.479062 46.710938 67.289062 L 46.560547 67.169922 C 46.500547 67.129922 46.440859 67.100078 46.380859 67.080078 C 46.320859 67.050078 46.259219 67.029531 46.199219 67.019531 C 45.999219 66.979531 45.799141 67.000078 45.619141 67.080078 C 45.489141 67.130078 45.379063 67.199062 45.289062 67.289062 C 45.109062 67.479063 45 67.74 45 68 L 43.900391 68 L 43.900391 12 z M 57.902344 13.005859 C 57.805156 13.015547 57.709141 13.040078 57.619141 13.080078 C 57.489141 13.130078 57.389063 13.199063 57.289062 13.289062 C 57.199063 13.389063 57.130078 13.499141 57.080078 13.619141 C 57.030078 13.739141 57 13.87 57 14 C 57 14.26 57.109063 14.520937 57.289062 14.710938 C 57.389062 14.800937 57.489141 14.869922 57.619141 14.919922 C 57.739141 14.979922 57.87 15 58 15 C 58.26 15 58.520938 14.890937 58.710938 14.710938 C 58.890938 14.520937 59 14.26 59 14 C 59 13.87 58.979922 13.739141 58.919922 13.619141 C 58.869922 13.499141 58.800938 13.389062 58.710938 13.289062 C 58.500937 13.079062 58.193906 12.976797 57.902344 13.005859 z M 50 13.011719 C 49.7375 13.011719 49.474063 13.104063 49.289062 13.289062 C 49.199063 13.389063 49.130078 13.499141 49.080078 13.619141 C 49.030078 13.739141 49 13.87 49 14 C 49 14.13 49.030078 14.260859 49.080078 14.380859 C 49.130078 14.510859 49.199062 14.610938 49.289062 14.710938 L 49.439453 14.830078 C 49.499453 14.870078 49.559141 14.899922 49.619141 14.919922 C 49.679141 14.949922 49.740781 14.970469 49.800781 14.980469 C 49.870781 14.990469 49.94 15 50 15 C 50.06 15 50.129219 14.990469 50.199219 14.980469 C 50.259219 14.970469 50.320859 14.949922 50.380859 14.919922 C 50.440859 14.899922 50.500547 14.870078 50.560547 14.830078 L 50.710938 14.710938 C 50.800937 14.610938 50.869922 14.510859 50.919922 14.380859 C 50.969922 14.260859 51 14.13 51 14 C 51 13.87 50.969922 13.739141 50.919922 13.619141 C 50.869922 13.499141 50.800938 13.389062 50.710938 13.289062 C 50.525937 13.104063 50.2625 13.011719 50 13.011719 z M 46 15 C 45.45 15 45 15.45 45 16 C 45 16.55 45.45 17 46 17 C 46.55 17 47 16.55 47 16 C 47 15.45 46.55 15 46 15 z M 54 15 C 53.45 15 53 15.45 53 16 C 53 16.55 53.45 17 54 17 C 54.55 17 55 16.55 55 16 C 55 15.45 54.55 15 54 15 z M 62.097656 15.005859 C 61.806094 14.976797 61.499063 15.079063 61.289062 15.289062 L 61.169922 15.439453 C 61.129922 15.499453 61.100078 15.559141 61.080078 15.619141 C 61.050078 15.679141 61.029531 15.740781 61.019531 15.800781 C 61.009531 15.870781 61 15.94 61 16 C 61 16.26 61.109063 16.520937 61.289062 16.710938 C 61.479062 16.890937 61.74 17 62 17 C 62.13 17 62.260859 16.969922 62.380859 16.919922 C 62.510859 16.869922 62.620937 16.800937 62.710938 16.710938 C 62.890938 16.520937 63 16.26 63 16 C 63 15.94 62.990469 15.870781 62.980469 15.800781 C 62.970469 15.740781 62.949922 15.679141 62.919922 15.619141 C 62.899922 15.559141 62.870078 15.499453 62.830078 15.439453 L 62.710938 15.289062 C 62.620938 15.199062 62.510859 15.130078 62.380859 15.080078 C 62.290859 15.040078 62.194844 15.015547 62.097656 15.005859 z M 50 17 C 49.45 17 49 17.45 49 18 C 49 18.55 49.45 19 50 19 C 50.55 19 51 18.55 51 18 C 51 17.45 50.55 17 50 17 z M 58 17 C 57.45 17 57 17.45 57 18 C 57 18.55 57.45 19 58 19 C 58.55 19 59 18.55 59 18 C 59 17.45 58.55 17 58 17 z M 26 19 C 24.083334 19 22.518559 19.754756 21.501953 20.898438 C 20.485347 22.042119 20 23.527778 20 25 C 20 26.472222 20.485347 27.957882 21.501953 29.101562 C 22.518559 30.245244 24.083334 31 26 31 C 29.301865 31 32 28.301863 32 25 C 32 21.698137 29.301865 19 26 19 z M 46 19 C 45.45 19 45 19.45 45 20 C 45 20.55 45.45 21 46 21 C 46.55 21 47 20.55 47 20 C 47 19.45 46.55 19 46 19 z M 54 19 C 53.45 19 53 19.45 53 20 C 53 20.55 53.45 21 54 21 C 54.55 21 55 20.55 55 20 C 55 19.45 54.55 19 54 19 z M 62 19 C 61.45 19 61 19.45 61 20 C 61 20.55 61.45 21 62 21 C 62.55 21 63 20.55 63 20 C 63 19.45 62.55 19 62 19 z M 26 21 C 28.220986 21 30 22.779015 30 25 C 30 27.220985 28.220986 29 26 29 C 24.583334 29 23.648107 28.504756 22.998047 27.773438 C 22.347987 27.042119 22 26.027778 22 25 C 22 23.972222 22.347987 22.957882 22.998047 22.226562 C 23.648107 21.495244 24.583334 21 26 21 z M 50 21 C 49.45 21 49 21.45 49 22 C 49 22.55 49.45 23 50 23 C 50.55 23 51 22.55 51 22 C 51 21.45 50.55 21 50 21 z M 58 21 C 57.45 21 57 21.45 57 22 C 57 22.55 57.45 23 58 23 C 58.55 23 59 22.55 59 22 C 59 21.45 58.55 21 58 21 z M 46 23 C 45.45 23 45 23.45 45 24 C 45 24.55 45.45 25 46 25 C 46.55 25 47 24.55 47 24 C 47 23.45 46.55 23 46 23 z M 54 23 C 53.45 23 53 23.45 53 24 C 53 24.55 53.45 25 54 25 C 54.55 25 55 24.55 55 24 C 55 23.45 54.55 23 54 23 z M 62 23 C 61.45 23 61 23.45 61 24 C 61 24.55 61.45 25 62 25 C 62.55 25 63 24.55 63 24 C 63 23.45 62.55 23 62 23 z M 50 25 C 49.45 25 49 25.45 49 26 C 49 26.55 49.45 27 50 27 C 50.55 27 51 26.55 51 26 C 51 25.45 50.55 25 50 25 z M 58 25 C 57.45 25 57 25.45 57 26 C 57 26.55 57.45 27 58 27 C 58.55 27 59 26.55 59 26 C 59 25.45 58.55 25 58 25 z M 46 27 C 45.45 27 45 27.45 45 28 C 45 28.55 45.45 29 46 29 C 46.55 29 47 28.55 47 28 C 47 27.45 46.55 27 46 27 z M 54 27 C 53.45 27 53 27.45 53 28 C 53 28.55 53.45 29 54 29 C 54.55 29 55 28.55 55 28 C 55 27.45 54.55 27 54 27 z M 62 27 C 61.45 27 61 27.45 61 28 C 61 28.55 61.45 29 62 29 C 62.55 29 63 28.55 63 28 C 63 27.45 62.55 27 62 27 z M 50 29 C 49.45 29 49 29.45 49 30 C 49 30.55 49.45 31 50 31 C 50.55 31 51 30.55 51 30 C 51 29.45 50.55 29 50 29 z M 58 29 C 57.45 29 57 29.45 57 30 C 57 30.55 57.45 31 58 31 C 58.55 31 59 30.55 59 30 C 59 29.45 58.55 29 58 29 z M 46 31 C 45.45 31 45 31.45 45 32 C 45 32.55 45.45 33 46 33 C 46.55 33 47 32.55 47 32 C 47 31.45 46.55 31 46 31 z M 54 31 C 53.45 31 53 31.45 53 32 C 53 32.55 53.45 33 54 33 C 54.55 33 55 32.55 55 32 C 55 31.45 54.55 31 54 31 z M 62 31 C 61.45 31 61 31.45 61 32 C 61 32.55 61.45 33 62 33 C 62.55 33 63 32.55 63 32 C 63 31.45 62.55 31 62 31 z M 50 33 C 49.45 33 49 33.45 49 34 C 49 34.55 49.45 35 50 35 C 50.55 35 51 34.55 51 34 C 51 33.45 50.55 33 50 33 z M 58 33 C 57.45 33 57 33.45 57 34 C 57 34.55 57.45 35 58 35 C 58.55 35 59 34.55 59 34 C 59 33.45 58.55 33 58 33 z M 46 35 C 45.45 35 45 35.45 45 36 C 45 36.55 45.45 37 46 37 C 46.55 37 47 36.55 47 36 C 47 35.45 46.55 35 46 35 z M 54 35 C 53.45 35 53 35.45 53 36 C 53 36.55 53.45 37 54 37 C 54.55 37 55 36.55 55 36 C 55 35.45 54.55 35 54 35 z M 62 35 C 61.45 35 61 35.45 61 36 C 61 36.55 61.45 37 62 37 C 62.55 37 63 36.55 63 36 C 63 35.45 62.55 35 62 35 z M 50 37 C 49.45 37 49 37.45 49 38 C 49 38.55 49.45 39 50 39 C 50.55 39 51 38.55 51 38 C 51 37.45 50.55 37 50 37 z M 58 37 C 57.45 37 57 37.45 57 38 C 57 38.55 57.45 39 58 39 C 58.55 39 59 38.55 59 38 C 59 37.45 58.55 37 58 37 z M 46 39 C 45.45 39 45 39.45 45 40 C 45 40.55 45.45 41 46 41 C 46.55 41 47 40.55 47 40 C 47 39.45 46.55 39 46 39 z M 62 39 C 61.45 39 61 39.45 61 40 C 61 40.55 61.45 41 62 41 C 62.55 41 63 40.55 63 40 C 63 39.45 62.55 39 62 39 z M 54 40 C 52.083334 40 50.518559 40.754756 49.501953 41.898438 C 48.485347 43.042119 48 44.527778 48 46 C 48 47.472222 48.485347 48.957881 49.501953 50.101562 C 50.518559 51.245244 52.083334 52 54 52 C 57.301865 52 60 49.301863 60 46 C 60 42.698137 57.301865 40 54 40 z M 54 42 C 56.220986 42 58 43.779015 58 46 C 58 48.220985 56.220986 50 54 50 C 52.583334 50 51.648107 49.504755 50.998047 48.773438 C 50.347987 48.042119 50 47.027778 50 46 C 50 44.972222 50.347987 43.957881 50.998047 43.226562 C 51.648107 42.495244 52.583334 42 54 42 z M 46 43 C 45.45 43 45 43.45 45 44 C 45 44.55 45.45 45 46 45 C 46.55 45 47 44.55 47 44 C 47 43.45 46.55 43 46 43 z M 62 43 C 61.45 43 61 43.45 61 44 C 61 44.55 61.45 45 62 45 C 62.55 45 63 44.55 63 44 C 63 43.45 62.55 43 62 43 z M 46 47 C 45.45 47 45 47.45 45 48 C 45 48.55 45.45 49 46 49 C 46.55 49 47 48.55 47 48 C 47 47.45 46.55 47 46 47 z M 62 47 C 61.45 47 61 47.45 61 48 C 61 48.55 61.45 49 62 49 C 62.55 49 63 48.55 63 48 C 63 47.45 62.55 47 62 47 z M 46 51 C 45.45 51 45 51.45 45 52 C 45 52.55 45.45 53 46 53 C 46.55 53 47 52.55 47 52 C 47 51.45 46.55 51 46 51 z M 62 51 C 61.45 51 61 51.45 61 52 C 61 52.55 61.45 53 62 53 C 62.55 53 63 52.55 63 52 C 63 51.45 62.55 51 62 51 z M 50 53 C 49.45 53 49 53.45 49 54 C 49 54.55 49.45 55 50 55 C 50.55 55 51 54.55 51 54 C 51 53.45 50.55 53 50 53 z M 58 53 C 57.45 53 57 53.45 57 54 C 57 54.55 57.45 55 58 55 C 58.55 55 59 54.55 59 54 C 59 53.45 58.55 53 58 53 z M 46 55 C 45.45 55 45 55.45 45 56 C 45 56.55 45.45 57 46 57 C 46.55 57 47 56.55 47 56 C 47 55.45 46.55 55 46 55 z M 54 55 C 53.45 55 53 55.45 53 56 C 53 56.55 53.45 57 54 57 C 54.55 57 55 56.55 55 56 C 55 55.45 54.55 55 54 55 z M 62 55 C 61.45 55 61 55.45 61 56 C 61 56.55 61.45 57 62 57 C 62.55 57 63 56.55 63 56 C 63 55.45 62.55 55 62 55 z M 50 57 C 49.45 57 49 57.45 49 58 C 49 58.55 49.45 59 50 59 C 50.55 59 51 58.55 51 58 C 51 57.45 50.55 57 50 57 z M 58 57 C 57.45 57 57 57.45 57 58 C 57 58.55 57.45 59 58 59 C 58.55 59 59 58.55 59 58 C 59 57.45 58.55 57 58 57 z M 46 59 C 45.45 59 45 59.45 45 60 C 45 60.55 45.45 61 46 61 C 46.55 61 47 60.55 47 60 C 47 59.45 46.55 59 46 59 z M 54 59 C 53.45 59 53 59.45 53 60 C 53 60.55 53.45 61 54 61 C 54.55 61 55 60.55 55 60 C 55 59.45 54.55 59 54 59 z M 62 59 C 61.45 59 61 59.45 61 60 C 61 60.55 61.45 61 62 61 C 62.55 61 63 60.55 63 60 C 63 59.45 62.55 59 62 59 z M 50 61 C 49.45 61 49 61.45 49 62 C 49 62.55 49.45 63 50 63 C 50.55 63 51 62.55 51 62 C 51 61.45 50.55 61 50 61 z M 58 61 C 57.45 61 57 61.45 57 62 C 57 62.55 57.45 63 58 63 C 58.55 63 59 62.55 59 62 C 59 61.45 58.55 61 58 61 z M 46 63 C 45.45 63 45 63.45 45 64 C 45 64.55 45.45 65 46 65 C 46.55 65 47 64.55 47 64 C 47 63.45 46.55 63 46 63 z M 54 63 C 53.45 63 53 63.45 53 64 C 53 64.55 53.45 65 54 65 C 54.55 65 55 64.55 55 64 C 55 63.45 54.55 63 54 63 z M 50 65.011719 C 49.74 65.011719 49.479062 65.104062 49.289062 65.289062 C 49.109062 65.479063 49 65.74 49 66 C 49 66.26 49.109063 66.520938 49.289062 66.710938 C 49.479062 66.890937 49.74 67 50 67 C 50.26 67 50.520938 66.890938 50.710938 66.710938 C 50.890938 66.520937 51 66.26 51 66 C 51 65.74 50.890937 65.479062 50.710938 65.289062 C 50.520938 65.104062 50.26 65.011719 50 65.011719 z M 58 65.011719 C 57.74 65.011719 57.479062 65.104062 57.289062 65.289062 C 57.109062 65.479063 57 65.74 57 66 C 57 66.26 57.109063 66.520938 57.289062 66.710938 C 57.479062 66.890937 57.74 67 58 67 C 58.26 67 58.520938 66.890938 58.710938 66.710938 C 58.890938 66.520937 59 66.26 59 66 C 59 65.74 58.890937 65.479062 58.710938 65.289062 C 58.520938 65.104062 58.26 65.011719 58 65.011719 z"/></svg>
    <svg fill="#124c91" xmlns="http://www.w3.org/2000/svg"  viewBox="-75 -125 200 200" width="200px" height="200px"><path d="M 25.001953 2 C 20.773627 2 16.751857 3.1814924 13.373047 5.2246094 C 12.832601 5.4125246 12.572102 5.6766734 12.261719 5.9609375 C 12.258215 5.9641463 12.253517 5.9655354 12.25 5.96875 A 1.0001 1.0001 0 0 0 12.197266 6.0078125 C 12.195349 6.0085506 12.193107 6.0084167 12.191406 6.0097656 L 12.191406 6.0117188 C 12.182893 6.0184864 12.177574 6.0239083 12.171875 6.0292969 C 12.165648 6.0328647 12.159945 6.0368659 12.154297 6.0410156 C 12.152414 6.0423989 12.150164 6.0433894 12.148438 6.0449219 A 1.0001 1.0001 0 0 0 12.128906 6.0644531 C 12.047856 6.1364023 11.97823 6.2017943 11.919922 6.2578125 C 11.914222 6.2632425 11.905861 6.2720967 11.900391 6.2773438 C 11.895991 6.2817337 11.887053 6.2887287 11.882812 6.2929688 A 1.0001 1.0001 0 0 0 12.589844 8 L 12.591797 8 A 1.0001 1.0001 0 0 0 13.283203 7.7226562 C 13.349092 7.6595092 13.398715 7.611919 13.447266 7.5683594 C 13.983807 7.1514728 14.826017 7.0479348 15.966797 7.28125 C 17.116143 7.5163173 18.467696 8.0881604 19.726562 8.7578125 C 22.244297 10.097117 24.380859 11.783203 24.380859 11.783203 A 1.0001 1.0001 0 0 0 25.623047 11.783203 C 25.623047 11.783203 27.759635 10.096984 30.277344 8.7578125 C 31.536198 8.0882269 32.887801 7.5161855 34.037109 7.28125 C 35.180225 7.0475804 36.024098 7.152975 36.560547 7.5722656 C 36.610057 7.6168748 36.65928 7.6637929 36.720703 7.7226562 A 1.0001 1.0001 0 0 0 37.412109 8 L 37.414062 8 A 1.0001 1.0001 0 0 0 38.121094 6.2929688 C 38.117094 6.2889887 38.109579 6.2814527 38.105469 6.2773438 L 38.103516 6.2753906 C 38.032912 6.2077241 37.951165 6.1304138 37.853516 6.0449219 C 37.849412 6.0412902 37.844729 6.0380527 37.839844 6.0351562 C 37.831245 6.0273241 37.824174 6.020993 37.8125 6.0117188 L 37.8125 6.0097656 C 37.8108 6.0084154 37.808535 6.0086145 37.806641 6.0078125 A 1.0001 1.0001 0 0 0 37.730469 5.953125 C 37.425882 5.6733404 37.169176 5.4111759 36.628906 5.2246094 C 33.25045 3.1812546 29.22938 2 25.001953 2 z M 25.001953 4 C 27.75149 4 30.315927 4.6974668 32.724609 5.6757812 C 31.573105 6.0182966 30.408349 6.4228098 29.337891 6.9921875 C 26.961131 8.2563874 25.468677 9.4515243 25.001953 9.8125 C 24.535231 9.4515245 23.042754 8.2564897 20.666016 6.9921875 C 19.595845 6.4229117 18.432429 6.0183996 17.28125 5.6757812 C 19.689552 4.6981994 22.253051 4 25.001953 4 z M 11.419922 8.0078125 C 9.4646494 8.0078125 8.21875 9.2832031 8.21875 9.2832031 A 1.0001 1.0001 0 0 0 8.1992188 9.3027344 C 4.4037543 13.396824 2.0019531 18.902675 2.0019531 25 C 2.0019531 30.981436 4.3499505 36.384765 8.1015625 40.478516 C 8.1047225 40.481916 8.106215 40.486814 8.109375 40.490234 A 1.0001 1.0001 0 0 0 8.1992188 40.597656 C 12.401316 45.122207 18.350071 48 25.001953 48 C 31.581749 48 37.582177 45.19762 41.775391 40.736328 A 1.0001 1.0001 0 0 0 42.101562 40.496094 C 45.795011 36.402932 48.097656 30.996514 48.097656 25.001953 A 1.0001 1.0001 0 0 0 48.097656 24.984375 C 47.99756 18.999182 45.701719 13.499899 41.900391 9.3984375 A 1.0001 1.0001 0 0 0 41.875 9.3710938 L 41.587891 9.0839844 L 41.626953 9.1269531 C 40.503484 7.8624967 38.882674 8.0625 38.125 8.0625 A 1.0001 1.0001 0 0 0 37.773438 8.125 C 37.533271 8.215102 36.227449 8.6043363 34.541016 9.4707031 C 32.854582 10.33707 30.682876 11.722358 28.316406 13.941406 A 1.0001 1.0001 0 0 0 28.300781 15.384766 C 28.300781 15.384766 33.435987 20.428376 36.589844 25.4375 C 38.847734 29.132509 40.382046 32.116109 40.652344 35.5 C 40.145782 34.512674 39.500605 33.402742 38.642578 32.183594 C 36.655403 29.196923 33.597024 25.914637 30.935547 23.261719 C 29.603068 21.933525 28.371468 20.766664 27.431641 19.890625 C 26.491814 19.014586 25.788712 18.372696 25.708984 18.292969 A 1.0001 1.0001 0 0 0 24.3125 18.275391 C 24.3125 18.275391 22.756585 19.753001 21.054688 21.400391 C 19.360733 23.040091 17.585477 24.771818 16.896484 25.572266 C 15.749794 26.770511 13.671903 29.159324 11.787109 31.822266 C 11.112458 32.775451 10.543117 33.75385 9.9707031 34.726562 C 10.231636 33.32327 10.652958 31.682026 11.484375 29.587891 L 11.486328 29.583984 C 11.487241 29.581684 11.487281 29.580425 11.488281 29.578125 C 13.368709 25.018661 19.363668 17.630389 21.693359 15.390625 A 1.0001 1.0001 0 0 0 21.707031 13.962891 C 21.707031 13.962891 19.311268 11.576707 16.373047 9.7792969 A 1.0001 1.0001 0 0 0 16.265625 9.6953125 C 16.259425 9.6913525 16.252254 9.6894969 16.246094 9.6855469 C 16.242994 9.6836969 16.241381 9.6815275 16.238281 9.6796875 L 16.238281 9.6816406 C 14.783785 8.7515704 13.128837 8.118579 11.486328 8.0097656 A 1.0001 1.0001 0 0 0 11.419922 8.0078125 z M 11.398438 10.013672 C 12.604053 10.103202 13.980477 10.605281 15.183594 11.378906 A 1.0001 1.0001 0 0 0 15.208984 11.394531 L 15.212891 11.396484 C 17.327214 12.666225 18.869724 14.063469 19.611328 14.759766 C 16.777759 17.658803 11.639581 23.957862 9.6347656 28.828125 A 1.0001 1.0001 0 0 0 9.6289062 28.837891 C 8.2092456 32.410188 7.7813148 35.007546 7.6933594 36.876953 C 5.371788 33.498329 4.0019531 29.413739 4.0019531 25 C 4.0019531 19.435401 6.1865638 14.425836 9.6523438 10.679688 C 9.6603138 10.671688 10.316696 10.024622 11.398438 10.013672 z M 38.898438 10.064453 C 39.441571 10.073904 39.851238 10.138172 40.132812 10.455078 A 1.0001 1.0001 0 0 0 40.173828 10.498047 L 40.439453 10.765625 C 43.90251 14.505611 46.003929 19.521555 46.097656 25.009766 C 46.096056 29.293891 44.784858 33.212231 42.609375 36.519531 C 42.562125 32.213745 40.815771 28.51343 38.291016 24.382812 A 1.0001 1.0001 0 0 0 38.283203 24.373047 C 35.354579 19.721649 31.515755 15.817338 30.462891 14.763672 C 32.360992 13.108433 34.108744 11.939695 35.455078 11.248047 C 36.907749 10.50177 37.768948 10.260757 38.310547 10.066406 C 38.521416 10.064931 38.717393 10.061303 38.898438 10.064453 z M 25.013672 20.375 C 25.326936 20.663868 25.515757 20.83842 26.068359 21.353516 C 26.997845 22.219915 28.212666 23.371178 29.523438 24.677734 C 32.14498 27.290847 35.153288 30.542584 36.986328 33.300781 A 1.0001 1.0001 0 0 0 37.001953 33.324219 C 39.488955 36.853832 40.00158 38.924571 40.126953 39.507812 C 36.308821 43.480111 30.930889 46 25.001953 46 C 19.134326 46 13.843665 43.58997 10.035156 39.716797 C 10.299292 38.065377 11.68988 35.422815 13.419922 32.978516 C 15.235147 30.413864 17.303522 28.037473 18.359375 26.935547 A 1.0001 1.0001 0 0 0 18.396484 26.894531 C 18.862606 26.350858 20.751711 24.477251 22.445312 22.837891 C 23.785218 21.5409 24.549601 20.816781 25.013672 20.375 z"/></svg>
</svg>