<svg fill="#124c91" xmlns="http://www.w3.org/2000/svg"  viewBox="0 0 80 80" width="100px" height="100px"><path d="M 25.759766 10 C 21.009778 10 17.443216 11.516683 15.185547 14.380859 C 12.927878 17.245035 12 21.294442 12 26.263672 L 12 55.263672 C 12 59.506129 13.373158 63.200473 15.804688 65.832031 C 18.236216 68.463589 21.72181 70 25.759766 70 L 38.099609 70 L 38.099609 10 L 25.759766 10 z M 41.900391 10 L 41.900391 70 L 54.240234 70 C 58.27819 70 61.763784 68.463589 64.195312 65.832031 C 66.626841 63.200473 68 59.506129 68 55.263672 L 68 26.263672 C 68 21.294442 67.072122 17.245035 64.814453 14.380859 C 62.556784 11.516683 58.990222 10 54.240234 10 L 41.900391 10 z M 25.759766 12 L 36.099609 12 L 36.099609 68 L 25.759766 68 C 22.221722 68 19.327409 66.697551 17.273438 64.474609 C 15.219466 62.251668 14 59.077215 14 55.263672 L 14 26.263672 C 14 21.546902 14.906778 17.964965 16.755859 15.619141 C 18.60494 13.273317 21.418754 12 25.759766 12 z M 43.900391 12 L 45 12 C 45 12.26 45.109063 12.520937 45.289062 12.710938 C 45.339063 12.750938 45.389453 12.800078 45.439453 12.830078 C 45.499453 12.870078 45.559141 12.899922 45.619141 12.919922 C 45.679141 12.949922 45.740781 12.970469 45.800781 12.980469 C 45.870781 12.990469 45.93 13 46 13 C 46.13 13 46.260859 12.979922 46.380859 12.919922 C 46.500859 12.869922 46.610937 12.800937 46.710938 12.710938 L 46.830078 12.560547 C 46.870078 12.500547 46.899922 12.440859 46.919922 12.380859 C 46.949922 12.320859 46.970469 12.259219 46.980469 12.199219 C 46.990469 12.129219 47 12.07 47 12 L 53 12 C 53 12.13 53.030078 12.260859 53.080078 12.380859 C 53.130078 12.510859 53.199062 12.610938 53.289062 12.710938 C 53.339063 12.750938 53.389453 12.800078 53.439453 12.830078 C 53.499453 12.870078 53.559141 12.899922 53.619141 12.919922 C 53.679141 12.949922 53.740781 12.970469 53.800781 12.980469 C 53.870781 12.990469 53.94 13 54 13 C 54.26 13 54.520938 12.890937 54.710938 12.710938 C 54.884021 12.528238 54.986069 12.279208 54.994141 12.029297 C 58.90055 12.17345 61.507007 13.415338 63.244141 15.619141 C 64.347143 17.018457 65.106929 18.867491 65.546875 21.125 C 65.456418 21.170925 65.367283 21.218664 65.289062 21.289062 C 65.199062 21.389062 65.130078 21.489141 65.080078 21.619141 C 65.030078 21.739141 65 21.87 65 22 C 65 22.26 65.109062 22.520937 65.289062 22.710938 C 65.437131 22.851213 65.632069 22.928525 65.832031 22.964844 C 65.902808 23.613854 65.942682 24.300423 65.96875 25.005859 C 65.433844 25.023403 65 25.461026 65 26 C 65 26.55 65.45 27 66 27 L 66 29 C 65.45 29 65 29.45 65 30 C 65 30.55 65.45 31 66 31 L 66 33 C 65.45 33 65 33.45 65 34 C 65 34.55 65.45 35 66 35 L 66 37 C 65.45 37 65 37.45 65 38 C 65 38.55 65.45 39 66 39 L 66 41 C 65.45 41 65 41.45 65 42 C 65 42.55 65.45 43 66 43 L 66 45 C 65.45 45 65 45.45 65 46 C 65 46.55 65.45 47 66 47 L 66 49 C 65.45 49 65 49.45 65 50 C 65 50.55 65.45 51 66 51 L 66 53 C 65.45 53 65 53.45 65 54 C 65 54.55 65.45 55 66 55 L 66 55.263672 C 66 55.871355 65.958809 56.457287 65.898438 57.03125 C 65.674233 57.052653 65.453694 57.128763 65.289062 57.289062 C 65.109063 57.479062 65 57.74 65 58 C 65 58.26 65.109062 58.520938 65.289062 58.710938 C 65.374072 58.791473 65.477218 58.851464 65.583984 58.900391 C 65.098205 60.977751 64.194716 62.765604 62.960938 64.193359 C 62.974443 64.128543 63 64.06596 63 64 C 63 63.87 62.969922 63.739141 62.919922 63.619141 C 62.869922 63.489141 62.800938 63.389063 62.710938 63.289062 C 62.430937 63.009062 61.979141 62.930078 61.619141 63.080078 C 61.489141 63.130078 61.379063 63.199062 61.289062 63.289062 C 61.199063 63.389062 61.130078 63.489141 61.080078 63.619141 C 61.030078 63.739141 61 63.87 61 64 C 61 64.27 61.109063 64.520938 61.289062 64.710938 C 61.389062 64.800937 61.489141 64.869922 61.619141 64.919922 C 61.739141 64.969922 61.87 65 62 65 C 62.08133 65 62.159094 64.971474 62.238281 64.951172 C 60.381084 66.724928 57.926334 67.805692 54.992188 67.964844 C 54.982553 67.717027 54.882602 67.470264 54.710938 67.289062 C 54.430938 67.009063 53.989141 66.920078 53.619141 67.080078 C 53.489141 67.130078 53.379063 67.199062 53.289062 67.289062 C 53.109062 67.479063 53 67.74 53 68 L 47 68 C 47 67.74 46.890937 67.479062 46.710938 67.289062 L 46.560547 67.169922 C 46.500547 67.129922 46.440859 67.100078 46.380859 67.080078 C 46.320859 67.050078 46.259219 67.029531 46.199219 67.019531 C 45.999219 66.979531 45.799141 67.000078 45.619141 67.080078 C 45.489141 67.130078 45.379063 67.199062 45.289062 67.289062 C 45.109062 67.479063 45 67.74 45 68 L 43.900391 68 L 43.900391 12 z M 57.902344 13.005859 C 57.805156 13.015547 57.709141 13.040078 57.619141 13.080078 C 57.489141 13.130078 57.389063 13.199063 57.289062 13.289062 C 57.199063 13.389063 57.130078 13.499141 57.080078 13.619141 C 57.030078 13.739141 57 13.87 57 14 C 57 14.26 57.109063 14.520937 57.289062 14.710938 C 57.389062 14.800937 57.489141 14.869922 57.619141 14.919922 C 57.739141 14.979922 57.87 15 58 15 C 58.26 15 58.520938 14.890937 58.710938 14.710938 C 58.890938 14.520937 59 14.26 59 14 C 59 13.87 58.979922 13.739141 58.919922 13.619141 C 58.869922 13.499141 58.800938 13.389062 58.710938 13.289062 C 58.500937 13.079062 58.193906 12.976797 57.902344 13.005859 z M 50 13.011719 C 49.7375 13.011719 49.474063 13.104063 49.289062 13.289062 C 49.199063 13.389063 49.130078 13.499141 49.080078 13.619141 C 49.030078 13.739141 49 13.87 49 14 C 49 14.13 49.030078 14.260859 49.080078 14.380859 C 49.130078 14.510859 49.199062 14.610938 49.289062 14.710938 L 49.439453 14.830078 C 49.499453 14.870078 49.559141 14.899922 49.619141 14.919922 C 49.679141 14.949922 49.740781 14.970469 49.800781 14.980469 C 49.870781 14.990469 49.94 15 50 15 C 50.06 15 50.129219 14.990469 50.199219 14.980469 C 50.259219 14.970469 50.320859 14.949922 50.380859 14.919922 C 50.440859 14.899922 50.500547 14.870078 50.560547 14.830078 L 50.710938 14.710938 C 50.800937 14.610938 50.869922 14.510859 50.919922 14.380859 C 50.969922 14.260859 51 14.13 51 14 C 51 13.87 50.969922 13.739141 50.919922 13.619141 C 50.869922 13.499141 50.800938 13.389062 50.710938 13.289062 C 50.525937 13.104063 50.2625 13.011719 50 13.011719 z M 46 15 C 45.45 15 45 15.45 45 16 C 45 16.55 45.45 17 46 17 C 46.55 17 47 16.55 47 16 C 47 15.45 46.55 15 46 15 z M 54 15 C 53.45 15 53 15.45 53 16 C 53 16.55 53.45 17 54 17 C 54.55 17 55 16.55 55 16 C 55 15.45 54.55 15 54 15 z M 62.097656 15.005859 C 61.806094 14.976797 61.499063 15.079063 61.289062 15.289062 L 61.169922 15.439453 C 61.129922 15.499453 61.100078 15.559141 61.080078 15.619141 C 61.050078 15.679141 61.029531 15.740781 61.019531 15.800781 C 61.009531 15.870781 61 15.94 61 16 C 61 16.26 61.109063 16.520937 61.289062 16.710938 C 61.479062 16.890937 61.74 17 62 17 C 62.13 17 62.260859 16.969922 62.380859 16.919922 C 62.510859 16.869922 62.620937 16.800937 62.710938 16.710938 C 62.890938 16.520937 63 16.26 63 16 C 63 15.94 62.990469 15.870781 62.980469 15.800781 C 62.970469 15.740781 62.949922 15.679141 62.919922 15.619141 C 62.899922 15.559141 62.870078 15.499453 62.830078 15.439453 L 62.710938 15.289062 C 62.620938 15.199062 62.510859 15.130078 62.380859 15.080078 C 62.290859 15.040078 62.194844 15.015547 62.097656 15.005859 z M 50 17 C 49.45 17 49 17.45 49 18 C 49 18.55 49.45 19 50 19 C 50.55 19 51 18.55 51 18 C 51 17.45 50.55 17 50 17 z M 58 17 C 57.45 17 57 17.45 57 18 C 57 18.55 57.45 19 58 19 C 58.55 19 59 18.55 59 18 C 59 17.45 58.55 17 58 17 z M 26 19 C 24.083334 19 22.518559 19.754756 21.501953 20.898438 C 20.485347 22.042119 20 23.527778 20 25 C 20 26.472222 20.485347 27.957882 21.501953 29.101562 C 22.518559 30.245244 24.083334 31 26 31 C 29.301865 31 32 28.301863 32 25 C 32 21.698137 29.301865 19 26 19 z M 46 19 C 45.45 19 45 19.45 45 20 C 45 20.55 45.45 21 46 21 C 46.55 21 47 20.55 47 20 C 47 19.45 46.55 19 46 19 z M 54 19 C 53.45 19 53 19.45 53 20 C 53 20.55 53.45 21 54 21 C 54.55 21 55 20.55 55 20 C 55 19.45 54.55 19 54 19 z M 62 19 C 61.45 19 61 19.45 61 20 C 61 20.55 61.45 21 62 21 C 62.55 21 63 20.55 63 20 C 63 19.45 62.55 19 62 19 z M 26 21 C 28.220986 21 30 22.779015 30 25 C 30 27.220985 28.220986 29 26 29 C 24.583334 29 23.648107 28.504756 22.998047 27.773438 C 22.347987 27.042119 22 26.027778 22 25 C 22 23.972222 22.347987 22.957882 22.998047 22.226562 C 23.648107 21.495244 24.583334 21 26 21 z M 50 21 C 49.45 21 49 21.45 49 22 C 49 22.55 49.45 23 50 23 C 50.55 23 51 22.55 51 22 C 51 21.45 50.55 21 50 21 z M 58 21 C 57.45 21 57 21.45 57 22 C 57 22.55 57.45 23 58 23 C 58.55 23 59 22.55 59 22 C 59 21.45 58.55 21 58 21 z M 46 23 C 45.45 23 45 23.45 45 24 C 45 24.55 45.45 25 46 25 C 46.55 25 47 24.55 47 24 C 47 23.45 46.55 23 46 23 z M 54 23 C 53.45 23 53 23.45 53 24 C 53 24.55 53.45 25 54 25 C 54.55 25 55 24.55 55 24 C 55 23.45 54.55 23 54 23 z M 62 23 C 61.45 23 61 23.45 61 24 C 61 24.55 61.45 25 62 25 C 62.55 25 63 24.55 63 24 C 63 23.45 62.55 23 62 23 z M 50 25 C 49.45 25 49 25.45 49 26 C 49 26.55 49.45 27 50 27 C 50.55 27 51 26.55 51 26 C 51 25.45 50.55 25 50 25 z M 58 25 C 57.45 25 57 25.45 57 26 C 57 26.55 57.45 27 58 27 C 58.55 27 59 26.55 59 26 C 59 25.45 58.55 25 58 25 z M 46 27 C 45.45 27 45 27.45 45 28 C 45 28.55 45.45 29 46 29 C 46.55 29 47 28.55 47 28 C 47 27.45 46.55 27 46 27 z M 54 27 C 53.45 27 53 27.45 53 28 C 53 28.55 53.45 29 54 29 C 54.55 29 55 28.55 55 28 C 55 27.45 54.55 27 54 27 z M 62 27 C 61.45 27 61 27.45 61 28 C 61 28.55 61.45 29 62 29 C 62.55 29 63 28.55 63 28 C 63 27.45 62.55 27 62 27 z M 50 29 C 49.45 29 49 29.45 49 30 C 49 30.55 49.45 31 50 31 C 50.55 31 51 30.55 51 30 C 51 29.45 50.55 29 50 29 z M 58 29 C 57.45 29 57 29.45 57 30 C 57 30.55 57.45 31 58 31 C 58.55 31 59 30.55 59 30 C 59 29.45 58.55 29 58 29 z M 46 31 C 45.45 31 45 31.45 45 32 C 45 32.55 45.45 33 46 33 C 46.55 33 47 32.55 47 32 C 47 31.45 46.55 31 46 31 z M 54 31 C 53.45 31 53 31.45 53 32 C 53 32.55 53.45 33 54 33 C 54.55 33 55 32.55 55 32 C 55 31.45 54.55 31 54 31 z M 62 31 C 61.45 31 61 31.45 61 32 C 61 32.55 61.45 33 62 33 C 62.55 33 63 32.55 63 32 C 63 31.45 62.55 31 62 31 z M 50 33 C 49.45 33 49 33.45 49 34 C 49 34.55 49.45 35 50 35 C 50.55 35 51 34.55 51 34 C 51 33.45 50.55 33 50 33 z M 58 33 C 57.45 33 57 33.45 57 34 C 57 34.55 57.45 35 58 35 C 58.55 35 59 34.55 59 34 C 59 33.45 58.55 33 58 33 z M 46 35 C 45.45 35 45 35.45 45 36 C 45 36.55 45.45 37 46 37 C 46.55 37 47 36.55 47 36 C 47 35.45 46.55 35 46 35 z M 54 35 C 53.45 35 53 35.45 53 36 C 53 36.55 53.45 37 54 37 C 54.55 37 55 36.55 55 36 C 55 35.45 54.55 35 54 35 z M 62 35 C 61.45 35 61 35.45 61 36 C 61 36.55 61.45 37 62 37 C 62.55 37 63 36.55 63 36 C 63 35.45 62.55 35 62 35 z M 50 37 C 49.45 37 49 37.45 49 38 C 49 38.55 49.45 39 50 39 C 50.55 39 51 38.55 51 38 C 51 37.45 50.55 37 50 37 z M 58 37 C 57.45 37 57 37.45 57 38 C 57 38.55 57.45 39 58 39 C 58.55 39 59 38.55 59 38 C 59 37.45 58.55 37 58 37 z M 46 39 C 45.45 39 45 39.45 45 40 C 45 40.55 45.45 41 46 41 C 46.55 41 47 40.55 47 40 C 47 39.45 46.55 39 46 39 z M 62 39 C 61.45 39 61 39.45 61 40 C 61 40.55 61.45 41 62 41 C 62.55 41 63 40.55 63 40 C 63 39.45 62.55 39 62 39 z M 54 40 C 52.083334 40 50.518559 40.754756 49.501953 41.898438 C 48.485347 43.042119 48 44.527778 48 46 C 48 47.472222 48.485347 48.957881 49.501953 50.101562 C 50.518559 51.245244 52.083334 52 54 52 C 57.301865 52 60 49.301863 60 46 C 60 42.698137 57.301865 40 54 40 z M 54 42 C 56.220986 42 58 43.779015 58 46 C 58 48.220985 56.220986 50 54 50 C 52.583334 50 51.648107 49.504755 50.998047 48.773438 C 50.347987 48.042119 50 47.027778 50 46 C 50 44.972222 50.347987 43.957881 50.998047 43.226562 C 51.648107 42.495244 52.583334 42 54 42 z M 46 43 C 45.45 43 45 43.45 45 44 C 45 44.55 45.45 45 46 45 C 46.55 45 47 44.55 47 44 C 47 43.45 46.55 43 46 43 z M 62 43 C 61.45 43 61 43.45 61 44 C 61 44.55 61.45 45 62 45 C 62.55 45 63 44.55 63 44 C 63 43.45 62.55 43 62 43 z M 46 47 C 45.45 47 45 47.45 45 48 C 45 48.55 45.45 49 46 49 C 46.55 49 47 48.55 47 48 C 47 47.45 46.55 47 46 47 z M 62 47 C 61.45 47 61 47.45 61 48 C 61 48.55 61.45 49 62 49 C 62.55 49 63 48.55 63 48 C 63 47.45 62.55 47 62 47 z M 46 51 C 45.45 51 45 51.45 45 52 C 45 52.55 45.45 53 46 53 C 46.55 53 47 52.55 47 52 C 47 51.45 46.55 51 46 51 z M 62 51 C 61.45 51 61 51.45 61 52 C 61 52.55 61.45 53 62 53 C 62.55 53 63 52.55 63 52 C 63 51.45 62.55 51 62 51 z M 50 53 C 49.45 53 49 53.45 49 54 C 49 54.55 49.45 55 50 55 C 50.55 55 51 54.55 51 54 C 51 53.45 50.55 53 50 53 z M 58 53 C 57.45 53 57 53.45 57 54 C 57 54.55 57.45 55 58 55 C 58.55 55 59 54.55 59 54 C 59 53.45 58.55 53 58 53 z M 46 55 C 45.45 55 45 55.45 45 56 C 45 56.55 45.45 57 46 57 C 46.55 57 47 56.55 47 56 C 47 55.45 46.55 55 46 55 z M 54 55 C 53.45 55 53 55.45 53 56 C 53 56.55 53.45 57 54 57 C 54.55 57 55 56.55 55 56 C 55 55.45 54.55 55 54 55 z M 62 55 C 61.45 55 61 55.45 61 56 C 61 56.55 61.45 57 62 57 C 62.55 57 63 56.55 63 56 C 63 55.45 62.55 55 62 55 z M 50 57 C 49.45 57 49 57.45 49 58 C 49 58.55 49.45 59 50 59 C 50.55 59 51 58.55 51 58 C 51 57.45 50.55 57 50 57 z M 58 57 C 57.45 57 57 57.45 57 58 C 57 58.55 57.45 59 58 59 C 58.55 59 59 58.55 59 58 C 59 57.45 58.55 57 58 57 z M 46 59 C 45.45 59 45 59.45 45 60 C 45 60.55 45.45 61 46 61 C 46.55 61 47 60.55 47 60 C 47 59.45 46.55 59 46 59 z M 54 59 C 53.45 59 53 59.45 53 60 C 53 60.55 53.45 61 54 61 C 54.55 61 55 60.55 55 60 C 55 59.45 54.55 59 54 59 z M 62 59 C 61.45 59 61 59.45 61 60 C 61 60.55 61.45 61 62 61 C 62.55 61 63 60.55 63 60 C 63 59.45 62.55 59 62 59 z M 50 61 C 49.45 61 49 61.45 49 62 C 49 62.55 49.45 63 50 63 C 50.55 63 51 62.55 51 62 C 51 61.45 50.55 61 50 61 z M 58 61 C 57.45 61 57 61.45 57 62 C 57 62.55 57.45 63 58 63 C 58.55 63 59 62.55 59 62 C 59 61.45 58.55 61 58 61 z M 46 63 C 45.45 63 45 63.45 45 64 C 45 64.55 45.45 65 46 65 C 46.55 65 47 64.55 47 64 C 47 63.45 46.55 63 46 63 z M 54 63 C 53.45 63 53 63.45 53 64 C 53 64.55 53.45 65 54 65 C 54.55 65 55 64.55 55 64 C 55 63.45 54.55 63 54 63 z M 50 65.011719 C 49.74 65.011719 49.479062 65.104062 49.289062 65.289062 C 49.109062 65.479063 49 65.74 49 66 C 49 66.26 49.109063 66.520938 49.289062 66.710938 C 49.479062 66.890937 49.74 67 50 67 C 50.26 67 50.520938 66.890938 50.710938 66.710938 C 50.890938 66.520937 51 66.26 51 66 C 51 65.74 50.890937 65.479062 50.710938 65.289062 C 50.520938 65.104062 50.26 65.011719 50 65.011719 z M 58 65.011719 C 57.74 65.011719 57.479062 65.104062 57.289062 65.289062 C 57.109062 65.479063 57 65.74 57 66 C 57 66.26 57.109063 66.520938 57.289062 66.710938 C 57.479062 66.890937 57.74 67 58 67 C 58.26 67 58.520938 66.890938 58.710938 66.710938 C 58.890938 66.520937 59 66.26 59 66 C 59 65.74 58.890937 65.479062 58.710938 65.289062 C 58.520938 65.104062 58.26 65.011719 58 65.011719 z"/></svg>